<svg width="27" height="21" viewBox="0 0 27 21" fill="none" xmlns="http://www.w3.org/2000/svg">
<path fill-rule="evenodd" clip-rule="evenodd" d="M6.91846 1.65637L7.24365 12.1472L9.66754 14.2092L21.4245 14.5709L25.5485 11.0619L25.042 1.65637H6.91846ZM12.3809 5.16541V8.13171L14.298 9.86815L16.1429 8.13171V5.16541H12.3809Z" fill="#EFD2FE"/>
<path d="M25.5 1.25H26.5C26.5 0.697715 26.0523 0.25 25.5 0.25V1.25ZM6.75 1.25V0.25C6.19772 0.25 5.75 0.697715 5.75 1.25L6.75 1.25ZM16.125 5H17.125C17.125 4.44772 16.6773 4 16.125 4V5ZM12.375 5V4C11.8227 4 11.375 4.44772 11.375 5H12.375ZM12.375 8.125H11.375C11.375 8.39022 11.4804 8.64457 11.6679 8.83211L12.375 8.125ZM14.25 10L13.5429 10.7071C13.9334 11.0976 14.5666 11.0976 14.9571 10.7071L14.25 10ZM16.125 8.125L16.8321 8.83211C17.0196 8.64457 17.125 8.39022 17.125 8.125H16.125ZM13.25 5C13.25 5.55228 13.6977 6 14.25 6C14.8023 6 15.25 5.55228 15.25 5H13.25ZM15.25 1.25C15.25 0.697715 14.8023 0.25 14.25 0.25C13.6977 0.25 13.25 0.697715 13.25 1.25H15.25ZM7.375 19C6.82272 19 6.375 19.4477 6.375 20C6.375 20.5523 6.82272 21 7.375 21V19ZM24.875 21C25.4273 21 25.875 20.5523 25.875 20C25.875 19.4477 25.4273 19 24.875 19V21ZM0.5 3.75V2.75C0.200407 2.75 -0.0834034 2.88432 -0.273342 3.11601C-0.463281 3.3477 -0.539336 3.65234 -0.480581 3.94612L0.5 3.75ZM1.75 8.75L2.69887 8.43434L2.69868 8.43377L1.75 8.75ZM5.75 10.625C5.75 11.4646 5.99507 12.9031 7.57459 14.0825C9.08416 15.2097 11.6867 16 16.125 16V14C11.8577 14 9.77272 13.2278 8.77119 12.48C7.83962 11.7844 7.75 11.0354 7.75 10.625H5.75ZM16.125 16C20.5633 16 23.1658 15.2097 24.6754 14.0825C26.2549 12.9031 26.5 11.4646 26.5 10.625H24.5C24.5 11.0354 24.4104 11.7844 23.4788 12.48C22.4773 13.2278 20.3923 14 16.125 14V16ZM26.5 10.625V1.25H24.5V10.625H26.5ZM25.5 0.25H6.75V2.25H25.5V0.25ZM5.75 1.25V10.625H7.75V1.25H5.75ZM16.125 4H12.375V6H16.125V4ZM11.375 5V8.125H13.375V5H11.375ZM11.6679 8.83211L13.5429 10.7071L14.9571 9.29289L13.0821 7.41789L11.6679 8.83211ZM14.9571 10.7071L16.8321 8.83211L15.4179 7.41789L13.5429 9.29289L14.9571 10.7071ZM17.125 8.125V5H15.125V8.125H17.125ZM15.25 5V1.25H13.25V5H15.25ZM7.375 21H24.875V19H7.375V21ZM6.75 2.75H0.5V4.75H6.75V2.75ZM0.5 3.75C-0.480581 3.94612 -0.480571 3.94616 -0.480559 3.94623C-0.480552 3.94626 -0.480537 3.94633 -0.480523 3.94641C-0.480494 3.94655 -0.480455 3.94674 -0.480407 3.94698C-0.480311 3.94746 -0.480178 3.94813 -0.480006 3.94898C-0.479663 3.95069 -0.479169 3.95315 -0.478527 3.95634C-0.477243 3.96272 -0.475365 3.97203 -0.472913 3.98413C-0.468009 4.00833 -0.460807 4.04372 -0.451459 4.08921C-0.432765 4.18019 -0.405475 4.31167 -0.370812 4.47508C-0.301527 4.80171 -0.202579 5.25688 -0.0837662 5.77173C0.151732 6.79223 0.472928 8.08106 0.801317 9.06623L2.69868 8.43377C2.40207 7.54394 2.09827 6.33277 1.86502 5.32202C1.74945 4.82125 1.65309 4.37798 1.58566 4.06007C1.55196 3.90122 1.52554 3.77391 1.50761 3.68667C1.49865 3.64305 1.49181 3.60946 1.48726 3.58697C1.48498 3.57573 1.48327 3.56726 1.48215 3.5617C1.48159 3.55892 1.48118 3.55687 1.48092 3.55556C1.48079 3.55491 1.48069 3.55444 1.48064 3.55416C1.48061 3.55402 1.48059 3.55392 1.48058 3.55388C1.48058 3.55386 1.48058 3.55386 1.48057 3.55385C1.48058 3.55386 1.48058 3.55388 0.5 3.75ZM0.801127 9.06566C1.08432 9.91693 1.77168 10.3966 2.41361 10.661C3.05499 10.9251 3.78287 11.0336 4.4174 11.0759C5.06349 11.119 5.67837 11.0972 6.12605 11.0659C6.35158 11.0502 6.53871 11.0318 6.67114 11.0171C6.73744 11.0097 6.79026 11.0033 6.82759 10.9985C6.84626 10.9961 6.86108 10.9941 6.87179 10.9927C6.87715 10.9919 6.88148 10.9913 6.88475 10.9909C6.88639 10.9907 6.88776 10.9905 6.88887 10.9903C6.88942 10.9902 6.88991 10.9902 6.89033 10.9901C6.89054 10.9901 6.8908 10.99 6.89091 10.99C6.89115 10.99 6.89138 10.99 6.75 10C6.60862 9.01005 6.60881 9.01002 6.60899 9.00999C6.60903 9.00999 6.6092 9.00996 6.60927 9.00995C6.60942 9.00993 6.60951 9.00992 6.60953 9.00992C6.60958 9.00991 6.60937 9.00994 6.6089 9.01C6.60796 9.01013 6.60601 9.01041 6.60306 9.0108C6.59717 9.0116 6.58734 9.01291 6.57381 9.01465C6.54673 9.01811 6.50492 9.02324 6.45034 9.02931C6.34101 9.04145 6.18137 9.05722 5.98688 9.07078C5.59452 9.09815 5.07635 9.1154 4.55042 9.08034C4.01291 9.04451 3.52977 8.95769 3.17518 8.81167C2.82114 8.66587 2.72756 8.52057 2.69887 8.43434L0.801127 9.06566Z" fill="#842FFB"/>
</svg>
