<svg width="36" height="25" viewBox="0 0 36 25" fill="none" xmlns="http://www.w3.org/2000/svg">
<path d="M8.18293 9.13636C12.4072 9.13636 15.8317 12.5197 15.8317 16.6932C15.8317 20.8666 12.4072 24.25 8.18293 24.25C3.95861 24.25 0.534146 20.8666 0.534146 16.6932L0.5 15.6136C0.5 7.26659 7.34894 0.5 15.7976 0.5V4.81818C12.8789 4.81818 10.1349 5.94111 8.07113 7.9801C7.67387 8.37265 7.31131 8.7903 6.98425 9.229C7.37482 9.16828 7.77508 9.13636 8.18293 9.13636ZM27.8512 9.13636C32.0755 9.13636 35.5 12.5197 35.5 16.6932C35.5 20.8666 32.0755 24.25 27.8512 24.25C23.627 24.25 20.2024 20.8666 20.2024 16.6932L20.1683 15.6136C20.1683 7.26659 27.0172 0.5 35.4659 0.5V4.81818C32.5473 4.81818 29.8032 5.94111 27.7394 7.9801C27.3421 8.37265 26.9795 8.7903 26.6525 9.229C27.043 9.16828 27.4433 9.13636 27.8512 9.13636Z" fill="#E0E6EB"/>
</svg>
