<svg width="30" height="30" viewBox="0 0 30 30" fill="none" xmlns="http://www.w3.org/2000/svg">
<path d="M26.2859 8.2208L23.0626 22.9894C22.7537 24.2472 21.1308 24.6369 19.9858 24.0443L15.6783 21.3192L12.8066 23.8685C12.1529 24.525 10.7555 24.2671 10.7555 23.2238L10.9603 18.0959L3.95605 15.9568C2.87991 15.6112 2.6046 13.5661 3.95593 12.9972L24.0003 5.8473C25.4362 5.31985 26.6494 6.65004 26.2859 8.2208Z" fill="white"/>
<path d="M24.6369 8.86556L21.7117 21.5946C21.491 22.493 20.9154 22.7165 20.0976 22.2933L15.6404 19.2628L13.4898 21.1713C13.2518 21.3909 13.0527 21.5746 12.594 21.5746L12.9142 17.3862L21.1751 10.4986C21.5342 10.2031 21.0972 10.0394 20.6169 10.3349L10.4044 16.2682L6.00781 14.9985C5.05148 14.723 5.03417 14.1161 6.20687 13.6928L23.4036 7.57988C24.1999 7.30438 24.8966 7.74358 24.6369 8.86556Z" fill="#33A9E7"/>
</svg>
