<svg width="31" height="30" viewBox="0 0 31 30" fill="none" xmlns="http://www.w3.org/2000/svg">
<path d="M14.9078 3.75324C13.0054 3.77504 8.91523 4.07179 6.62754 6.06399C4.92585 7.6645 4.33171 10.0308 4.26207 12.9569C4.20428 15.8724 4.13465 21.3476 9.69459 22.8384V25.1091C9.69459 25.1091 9.65977 26.0176 10.2924 26.204C11.0718 26.4381 11.5156 25.7392 12.2564 24.9881L13.638 23.5051C17.4422 23.8053 20.3559 23.1134 20.6915 23.0107C21.4634 22.7765 25.8114 22.2491 26.5218 16.7732C27.2508 11.118 26.167 7.5548 24.2104 5.94304H24.1986C23.6081 5.42688 21.2353 3.78559 15.9339 3.7673C15.9339 3.7673 15.5405 3.74269 14.9078 3.75324Z" fill="#675FA7"/>
<path d="M14.9078 3.75327C13.0054 3.77507 8.91523 4.07183 6.62754 6.06403C4.92585 7.66454 4.33171 10.0308 4.26207 12.9569C4.20428 15.8724 4.13465 21.3476 9.69459 22.8384V25.1091C9.69459 25.1091 9.65977 26.0177 10.2924 26.204C11.0718 26.4382 11.5156 25.7392 12.2564 24.9882L13.638 23.5051C17.4422 23.8054 20.3559 23.1134 20.6915 23.0107C21.4634 22.7766 25.8114 22.2491 26.5218 16.7732C27.2508 11.118 26.167 7.55484 24.2104 5.94308H24.1986C23.6081 5.42692 21.2353 3.78562 15.9339 3.76734C15.9339 3.76734 15.5405 3.74202 14.9078 3.75257V3.75327ZM14.973 5.34324C15.5131 5.33972 15.8413 5.36152 15.8413 5.36152C20.3285 5.37277 22.4702 6.65473 22.9755 7.0865C24.6231 8.42682 25.4721 11.6391 24.8505 16.3605C24.2601 20.9384 20.7337 21.2281 20.081 21.4257C19.8032 21.5101 17.237 22.1106 14.004 21.913C14.004 21.913 11.5963 24.671 10.8436 25.3813C10.7243 25.5057 10.5851 25.5423 10.4962 25.524C10.3687 25.4945 10.3302 25.3447 10.3376 25.1393L10.3606 21.3708C5.6452 20.1332 5.92301 15.4632 5.97339 13.0237C6.03117 10.5843 6.51346 8.58856 7.94919 7.23699C9.88202 5.57811 13.355 5.35449 14.9715 5.34324H14.973ZM15.3286 7.78197C15.2898 7.7816 15.2513 7.78853 15.2153 7.80235C15.1793 7.81617 15.1466 7.83661 15.119 7.86249C15.0914 7.88838 15.0694 7.9192 15.0544 7.95317C15.0394 7.98715 15.0316 8.02361 15.0315 8.06045C15.0315 8.21797 15.1664 8.34243 15.3286 8.34243C16.0631 8.32917 16.7932 8.45408 17.4766 8.70995C18.16 8.96582 18.7834 9.34759 19.3106 9.83324C20.387 10.8255 20.9115 12.1588 20.9315 13.902C20.9315 14.056 21.0626 14.184 21.2286 14.184V14.1728C21.3068 14.173 21.3819 14.1438 21.4376 14.0916C21.4932 14.0395 21.5249 13.9685 21.5257 13.8943C21.5616 13.0737 21.4215 12.2548 21.1136 11.4873C20.8058 10.7198 20.3368 10.0197 19.7351 9.4296C18.5623 8.34173 17.0762 7.78127 15.3286 7.78127V7.78197ZM11.4237 8.42682C11.214 8.39774 11.0001 8.43769 10.8177 8.54004H10.8021C10.3786 8.77571 9.997 9.07358 9.67162 9.42257C9.40122 9.71932 9.25453 10.0196 9.21601 10.3086C9.19304 10.4809 9.2086 10.6532 9.26268 10.8177L9.28194 10.829C9.58643 11.6785 9.98425 12.4956 10.4702 13.2649C11.0963 14.3457 11.8667 15.3453 12.7624 16.2388L12.789 16.2754L12.8313 16.3049L12.8579 16.3344L12.8891 16.3598C13.8338 17.2125 14.8894 17.9472 16.0302 18.546C17.334 19.2197 18.1252 19.5383 18.6001 19.6705V19.6775C18.7394 19.7176 18.8661 19.7359 18.9935 19.7359C19.3982 19.7077 19.7813 19.5518 20.0818 19.2928C20.4478 18.9839 20.7581 18.6202 21.0004 18.2162V18.2092C21.2279 17.8027 21.1508 17.4181 20.8226 17.1579C20.1654 16.6126 19.4546 16.1282 18.7001 15.7114C18.1949 15.4512 17.6815 15.6087 17.4733 15.8724L17.0296 16.4033C16.8021 16.6671 16.3887 16.6305 16.3887 16.6305L16.3769 16.6375C13.2943 15.89 12.472 12.9274 12.472 12.9274C12.472 12.9274 12.4334 12.5244 12.7187 12.3191L13.2743 11.8944C13.5402 11.689 13.7255 11.2024 13.4402 10.7221C13.0042 10.0049 12.495 9.33013 11.92 8.7074C11.7943 8.56059 11.618 8.46071 11.4222 8.42541L11.4237 8.42682ZM15.8413 9.26224C15.4479 9.26224 15.4479 9.82621 15.845 9.82621C16.3341 9.83374 16.8169 9.9327 17.2658 10.1174C17.7146 10.3022 18.1207 10.569 18.4608 10.9028C18.7711 11.2277 19.0096 11.6084 19.162 12.0224C19.3145 12.4363 19.3778 12.8751 19.3484 13.3127C19.3497 13.3868 19.3816 13.4574 19.4371 13.5095C19.4926 13.5615 19.5674 13.5908 19.6454 13.5912L19.6573 13.606C19.7359 13.6054 19.8111 13.5755 19.8667 13.5228C19.9223 13.47 19.9538 13.3986 19.9544 13.324C19.981 12.2066 19.6151 11.2692 18.8972 10.5182C18.1756 9.76714 17.1688 9.34592 15.8835 9.26224H15.8413ZM16.328 10.7784C15.9228 10.7671 15.9072 11.3423 16.3087 11.3536C17.2851 11.4014 17.7593 11.8697 17.8215 12.8331C17.8229 12.9063 17.8543 12.976 17.9092 13.0274C17.964 13.0788 18.0378 13.1077 18.1149 13.1081H18.1267C18.1663 13.1065 18.2052 13.0974 18.2411 13.0814C18.277 13.0653 18.3091 13.0427 18.3357 13.0147C18.3622 12.9868 18.3826 12.9541 18.3957 12.9186C18.4088 12.883 18.4143 12.8454 18.412 12.8078C18.3423 11.5519 17.6207 10.8445 16.3398 10.7791H16.328V10.7784Z" fill="white"/>
</svg>
