<svg width="20" height="11" viewBox="0 0 20 11" fill="none" xmlns="http://www.w3.org/2000/svg">
<path d="M19.3986 9.5311C19.3754 9.48536 19.3538 9.44742 19.3337 9.41702C19.0012 8.86934 18.3657 8.19709 17.4277 7.4001L17.4078 7.38185L17.3979 7.3729L17.3879 7.36373H17.3778C16.9521 6.99261 16.6825 6.74307 16.5696 6.61532C16.363 6.37195 16.3167 6.12561 16.4296 5.87602C16.5094 5.68743 16.809 5.28918 17.3278 4.6807C17.6007 4.35823 17.8168 4.09977 17.9764 3.90506C19.1274 2.50572 19.6264 1.61153 19.4733 1.22213L19.4139 1.13113C19.3739 1.07634 19.2708 1.02622 19.1047 0.980518C18.9382 0.934907 18.7253 0.927364 18.4658 0.95776L15.5919 0.975915C15.5453 0.960829 15.4788 0.962235 15.3922 0.980518C15.3057 0.998801 15.2624 1.00797 15.2624 1.00797L15.2124 1.03083L15.1727 1.05828C15.1394 1.07644 15.1028 1.10837 15.0629 1.15401C15.0231 1.1995 14.9899 1.25287 14.9633 1.3137C14.6504 2.04984 14.2947 2.73426 13.8954 3.36693C13.6493 3.74419 13.4232 4.07114 13.2167 4.34797C13.0105 4.6247 12.8375 4.82859 12.6979 4.95929C12.5581 5.09011 12.432 5.19492 12.3186 5.27409C12.2055 5.35329 12.1191 5.38676 12.0593 5.37452C11.9994 5.36228 11.9429 5.35013 11.8895 5.33798C11.7964 5.2832 11.7215 5.20869 11.6651 5.1144C11.6084 5.02011 11.5702 4.90144 11.5503 4.75847C11.5304 4.6154 11.5187 4.49234 11.5153 4.38888C11.5122 4.28554 11.5136 4.13938 11.5204 3.9508C11.5273 3.76212 11.5304 3.63446 11.5304 3.56753C11.5304 3.33631 11.5353 3.08537 11.5452 2.81464C11.5553 2.54392 11.5635 2.32941 11.5703 2.17139C11.577 2.01321 11.5802 1.84585 11.5802 1.66941C11.5802 1.49298 11.5684 1.35461 11.5452 1.25418C11.5223 1.15388 11.4871 1.05653 11.4407 0.962139C11.3941 0.867849 11.3258 0.794909 11.2362 0.74313C11.1464 0.691414 11.0347 0.650373 10.9019 0.619881C10.5492 0.546909 10.1002 0.507435 9.55454 0.501298C8.31718 0.489153 7.52211 0.56222 7.1695 0.720404C7.0298 0.787238 6.90337 0.878556 6.79034 0.99407C6.67055 1.12796 6.65385 1.20103 6.74032 1.21305C7.13955 1.26774 7.42218 1.39856 7.58852 1.60539L7.64846 1.71499C7.69509 1.79407 7.74165 1.93407 7.78824 2.13479C7.83476 2.33552 7.86478 2.55757 7.878 2.8008C7.9112 3.24499 7.9112 3.62522 7.878 3.94153C7.84469 4.25796 7.81323 4.5043 7.7832 4.68073C7.75318 4.85717 7.7083 5.00014 7.64846 5.10961C7.58852 5.21911 7.54864 5.28604 7.52864 5.31034C7.50869 5.33463 7.49205 5.34994 7.47884 5.35595C7.39236 5.38625 7.30243 5.40169 7.20935 5.40169C7.11613 5.40169 7.00309 5.35905 6.87006 5.27383C6.73707 5.18862 6.59904 5.07157 6.45598 4.9225C6.31292 4.77339 6.15157 4.56503 5.97188 4.29737C5.79233 4.02971 5.60603 3.71338 5.41309 3.34836L5.25346 3.08364C5.15367 2.91334 5.01736 2.66538 4.84438 2.33996C4.67129 2.01442 4.5183 1.69952 4.38531 1.39533C4.33214 1.26758 4.25228 1.17031 4.14585 1.10338L4.0959 1.07593C4.06269 1.05164 4.00939 1.02584 3.93627 0.998353C3.86304 0.970897 3.78664 0.951208 3.70673 0.939094L0.972415 0.957249C0.693002 0.957249 0.503419 1.01513 0.403594 1.13074L0.363643 1.18543C0.343685 1.21589 0.333618 1.26454 0.333618 1.3315C0.333618 1.39843 0.353576 1.48058 0.393527 1.57784C0.792688 2.43572 1.22677 3.26308 1.69576 4.06004C2.16476 4.85701 2.57231 5.49898 2.91816 5.98539C3.26409 6.47215 3.6167 6.93156 3.97598 7.36338C4.33525 7.79535 4.57307 8.07218 4.68943 8.1938C4.80593 8.31565 4.89744 8.40674 4.96395 8.46757L5.21348 8.68654C5.37314 8.83258 5.6076 9.00748 5.91697 9.21124C6.22641 9.41514 6.56898 9.61586 6.94486 9.81375C7.32081 10.0113 7.75818 10.1725 8.2572 10.2972C8.75615 10.422 9.24178 10.4721 9.71417 10.448H10.8618C11.0946 10.4296 11.2709 10.3626 11.3907 10.2471L11.4305 10.2014C11.4572 10.1651 11.4822 10.1087 11.5052 10.0328C11.5286 9.95672 11.5402 9.87294 11.5402 9.78181C11.5334 9.52026 11.5551 9.28454 11.6049 9.07467C11.6546 8.86486 11.7113 8.70668 11.7747 8.60015C11.8381 8.49371 11.9096 8.40389 11.9892 8.33108C12.069 8.25811 12.1258 8.21391 12.1592 8.19869C12.1923 8.18338 12.2187 8.173 12.2387 8.16676C12.3984 8.11811 12.5863 8.16523 12.8027 8.30833C13.019 8.4513 13.2218 8.62783 13.4115 8.83763C13.6011 9.04763 13.8289 9.28323 14.095 9.54478C14.3612 9.80643 14.594 10.0009 14.7935 10.1289L14.9931 10.2384C15.1263 10.3114 15.2993 10.3784 15.5122 10.4392C15.7248 10.5 15.911 10.5152 16.0709 10.4848L18.6255 10.4484C18.8782 10.4484 19.0748 10.4101 19.2142 10.3342C19.354 10.2582 19.437 10.1744 19.4638 10.0833C19.4905 9.99203 19.4919 9.88854 19.4688 9.77283C19.4452 9.65741 19.4218 9.57671 19.3986 9.5311Z" fill="#2F8AF2"/>
</svg>
